<?xml version="1.0" encoding="utf-8"?>
<!-- Generator: Adobe Illustrator 22.1.0, SVG Export Plug-In . SVG Version: 6.00 Build 0)  -->
<svg version="1.1" id="Livello_1" xmlns:sketch="http://www.bohemiancoding.com/sketch/ns"
	 xmlns="http://www.w3.org/2000/svg" xmlns:xlink="http://www.w3.org/1999/xlink" x="0px" y="0px" viewBox="0 0 193 193"
	 style="enable-background:new 0 0 193 193;" xml:space="preserve">
<style type="text/css">
	.st0{display:none;}
	.st1{display:inline;}
	.st2{fill:#FFFFFF;}
	.st3{filter:url(#Adobe_OpacityMaskFilter);}
	.st4{mask:url(#mask-2_1_);fill:#FFFFFF;}
	.st5{fill:none;stroke:#1485E0;stroke-width:4;}
	.st6{filter:url(#Adobe_OpacityMaskFilter_1_);}
	.st7{mask:url(#mask-4_1_);fill:#C4E1F7;}
	.st8{filter:url(#Adobe_OpacityMaskFilter_2_);}
	.st9{mask:url(#mask-6_1_);fill:#C4E1F7;}
	.st10{filter:url(#Adobe_OpacityMaskFilter_3_);}
	.st11{mask:url(#mask-8_1_);fill:#1485E0;}
	.st12{filter:url(#Adobe_OpacityMaskFilter_4_);}
	.st13{mask:url(#mask-10_1_);fill:#FFFFFF;fill-opacity:0.44;}
	.st14{fill:none;stroke:#1485E0;stroke-width:2;}
	.st15{filter:url(#Adobe_OpacityMaskFilter_5_);}
	.st16{mask:url(#mask-12_1_);fill:#1485E0;}
	.st17{filter:url(#Adobe_OpacityMaskFilter_6_);}
	.st18{mask:url(#mask-14_1_);fill:#1485E0;}
	.st19{filter:url(#Adobe_OpacityMaskFilter_7_);}
	.st20{mask:url(#mask-16_1_);fill:#1485E0;}
	.st21{filter:url(#Adobe_OpacityMaskFilter_8_);}
	.st22{mask:url(#mask-18_1_);fill:#C4E1F7;}
	.st23{filter:url(#Adobe_OpacityMaskFilter_9_);}
	.st24{mask:url(#mask-20_1_);fill:#1485E0;}
	.st25{filter:url(#Adobe_OpacityMaskFilter_10_);}
	.st26{mask:url(#mask-22_1_);fill:#FFFFFF;fill-opacity:0.44;}
	.st27{filter:url(#Adobe_OpacityMaskFilter_11_);}
	.st28{mask:url(#mask-24_1_);fill:#FFFFFF;}
	.st29{filter:url(#Adobe_OpacityMaskFilter_12_);}
	.st30{mask:url(#mask-26_1_);fill:#1485E0;}
	.st31{filter:url(#Adobe_OpacityMaskFilter_13_);}
	.st32{mask:url(#mask-28_1_);fill:#1485E0;}
	.st33{filter:url(#Adobe_OpacityMaskFilter_14_);}
	.st34{mask:url(#mask-30_1_);fill:#C4E1F7;}
	.st35{filter:url(#Adobe_OpacityMaskFilter_15_);}
	.st36{mask:url(#mask-32_1_);fill:#1485E0;}
	.st37{filter:url(#Adobe_OpacityMaskFilter_16_);}
	.st38{mask:url(#mask-34_1_);fill:#FFFFFF;fill-opacity:0.44;}
	.st39{fill:#FFFFFF;stroke:#F9A326;stroke-miterlimit:10;}
	.st40{fill:#F9A326;}
</style>
<title>devices</title>
<desc>Created with Sketch Beta.</desc>
<g id="Page-1_2_" sketch:type="MSPage" class="st0">
	<g id="WINNER" transform="translate(-622.000000, -3780.000000)" sketch:type="MSArtboardGroup" class="st1">
		<g id="Group-_x2B_-super-icons" transform="translate(194.000000, 3302.000000)" sketch:type="MSLayerGroup">
			<g id="super-icons" transform="translate(65.000000, 158.000000)">
				<g id="devices" transform="translate(363.000000, 320.000000)">
					<rect id="Rectangle-21" sketch:type="MSShapeGroup" class="st2" width="193" height="193">
					</rect>
					<g id="Page-1" transform="translate(55.415385, 6.000000)">
						<g id="Group-3">
							<g id="Clip-2">
							</g>
							<defs>
								<filter id="Adobe_OpacityMaskFilter" filterUnits="userSpaceOnUse" x="-3.8" y="-3.8" width="122.1" height="179.3">
									<feColorMatrix  type="matrix" values="1 0 0 0 0  0 1 0 0 0  0 0 1 0 0  0 0 0 1 0"/>
								</filter>
							</defs>
							<mask maskUnits="userSpaceOnUse" x="-3.8" y="-3.8" width="122.1" height="179.3" id="mask-2_1_">
								<g class="st3">
									<path id="path-1_1_" class="st2" d="M114.6,165.7c0,3.3-2.7,6-6,6H6c-3.3,0-6-2.7-6-6V6c0-3.3,2.7-6,6-6h102.5
										c3.3,0,6,2.7,6,6V165.7L114.6,165.7L114.6,165.7z"/>
								</g>
							</mask>
							<path id="Fill-1" sketch:type="MSShapeGroup" class="st4" d="M-3.8-3.8h122.1v179.3H-3.8V-3.8z"/>
						</g>
						<path id="Stroke-4" sketch:type="MSShapeGroup" class="st5" d="M114.6,165.7c0,3.3-2.7,6-6,6H6c-3.3,0-6-2.7-6-6V6
							c0-3.3,2.7-6,6-6h102.5c3.3,0,6,2.7,6,6V165.7L114.6,165.7L114.6,165.7z"/>
						<g id="Group-7" transform="translate(6.030769, 15.818182)">
							<g id="Clip-6">
							</g>
							<defs>
								<filter id="Adobe_OpacityMaskFilter_1_" filterUnits="userSpaceOnUse" x="-3.8" y="-3.8" width="110.1" height="145.4">
									<feColorMatrix  type="matrix" values="1 0 0 0 0  0 1 0 0 0  0 0 1 0 0  0 0 0 1 0"/>
								</filter>
							</defs>
							<mask maskUnits="userSpaceOnUse" x="-3.8" y="-3.8" width="110.1" height="145.4" id="mask-4_1_">
								<g class="st6">
									<path id="path-3_1_" class="st2" d="M0,0h102.5v137.8H0V0L0,0z"/>
								</g>
							</mask>
							<path id="Fill-5" sketch:type="MSShapeGroup" class="st7" d="M-3.8-3.8h110.1v145.4H-3.8V-3.8z"/>
						</g>
						<g id="Group-14" transform="translate(6.030769, 15.818182)">
							<g id="Group-10" transform="translate(0.753846, 0.753247)">
								<g id="Clip-9">
								</g>
								<defs>
									<filter id="Adobe_OpacityMaskFilter_2_" filterUnits="userSpaceOnUse" x="-3.8" y="-3.8" width="108.6" height="143.9">
										<feColorMatrix  type="matrix" values="1 0 0 0 0  0 1 0 0 0  0 0 1 0 0  0 0 0 1 0"/>
									</filter>
								</defs>
								<mask maskUnits="userSpaceOnUse" x="-3.8" y="-3.8" width="108.6" height="143.9" id="mask-6_1_">
									<g class="st8">
										<path id="path-5_1_" class="st2" d="M0,0h101v136.3H0V0L0,0z"/>
									</g>
								</mask>
								<path id="Fill-8" sketch:type="MSShapeGroup" class="st9" d="M-3.8-3.8h108.6v143.9H-3.8V-3.8z"/>
							</g>
							<g id="Group-13">
								<g id="Clip-12">
								</g>
								<defs>
									<filter id="Adobe_OpacityMaskFilter_3_" filterUnits="userSpaceOnUse" x="-3.8" y="-3.8" width="110.1" height="145.4">
										<feColorMatrix  type="matrix" values="1 0 0 0 0  0 1 0 0 0  0 0 1 0 0  0 0 0 1 0"/>
									</filter>
								</defs>
								<mask maskUnits="userSpaceOnUse" x="-3.8" y="-3.8" width="110.1" height="145.4" id="mask-8_1_">
									<g class="st10">
										<path id="path-7_1_" class="st2" d="M0,0h102.5v137.8H0V0L0,0z M101,1.5v134.8H1.5V1.5H101L101,1.5z"/>
									</g>
								</mask>
								<path id="Fill-11" sketch:type="MSShapeGroup" class="st11" d="M-3.8-3.8h110.1v145.4H-3.8V-3.8z"/>
							</g>
						</g>
						<g id="Group-17" transform="translate(6.030769, 15.818182)">
							<g id="Clip-16">
							</g>
							<defs>
								<filter id="Adobe_OpacityMaskFilter_4_" filterUnits="userSpaceOnUse" x="-61.8" y="-10.9" width="162.7" height="154.9">
									<feColorMatrix  type="matrix" values="1 0 0 0 0  0 1 0 0 0  0 0 1 0 0  0 0 0 1 0"/>
								</filter>
							</defs>
							<mask maskUnits="userSpaceOnUse" x="-61.8" y="-10.9" width="162.7" height="154.9" id="mask-10_1_">
								<g class="st12">
									<path id="path-9_1_" class="st2" d="M47.2,0h47.2l0,0L43.8,137.8H21.9H0V0H47.2L47.2,0z"/>
								</g>
							</mask>
							<path id="Fill-15" sketch:type="MSShapeGroup" class="st13" d="M-61.8-10.9h162.7V144H-61.8V-10.9z"/>
						</g>
						<path id="Stroke-18" sketch:type="MSShapeGroup" class="st14" d="M57.1,165.9c2.4,0,4.4-2,4.4-4.4c0-2.4-2-4.4-4.4-4.4
							c-2.4,0-4.4,2-4.4,4.4C52.8,163.9,54.7,165.9,57.1,165.9L57.1,165.9z"/>
						<g id="Group-21" transform="translate(54.276923, 4.519481)">
							<g id="Clip-20">
							</g>
							<defs>
								<filter id="Adobe_OpacityMaskFilter_5_" filterUnits="userSpaceOnUse" x="-3.2" y="-3.5" width="12.1" height="12.1">
									<feColorMatrix  type="matrix" values="1 0 0 0 0  0 1 0 0 0  0 0 1 0 0  0 0 0 1 0"/>
								</filter>
							</defs>
							<mask maskUnits="userSpaceOnUse" x="-3.2" y="-3.5" width="12.1" height="12.1" id="mask-12_1_">
								<g class="st15">
									<path id="path-11_1_" class="st2" d="M2.9,1.8c0.5,0,0.8,0.3,0.8,0.8S3.3,3.3,2.9,3.3S2.1,3,2.1,2.6S2.5,1.8,2.9,1.8
										L2.9,1.8L2.9,1.8z M2.9,0.3c-1.3,0-2.3,1-2.3,2.3s1,2.3,2.3,2.3s2.3-1,2.3-2.3S4.1,0.3,2.9,0.3L2.9,0.3L2.9,0.3L2.9,0.3z"
										/>
								</g>
							</mask>
							<path id="Fill-19" sketch:type="MSShapeGroup" class="st16" d="M-3.2-3.5H8.9V8.6H-3.2V-3.5z"/>
						</g>
					</g>
					<g id="Page-1_1_" transform="translate(23.000000, 56.467532)">
						<g id="Group-3_1_" transform="translate(27.138462, 3.766234)">
							<g id="Clip-2_1_">
							</g>
							<defs>
								<filter id="Adobe_OpacityMaskFilter_6_" filterUnits="userSpaceOnUse" x="-3.2" y="-3.4" width="12.1" height="12.1">
									<feColorMatrix  type="matrix" values="1 0 0 0 0  0 1 0 0 0  0 0 1 0 0  0 0 0 1 0"/>
								</filter>
							</defs>
							<mask maskUnits="userSpaceOnUse" x="-3.2" y="-3.4" width="12.1" height="12.1" id="mask-14_1_">
								<g class="st17">
									<path id="path-13_1_" class="st2" d="M2.9,1.9c0.5,0,0.8,0.3,0.8,0.8S3.3,3.4,2.9,3.4S2.1,3.1,2.1,2.6S2.5,1.9,2.9,1.9
										L2.9,1.9L2.9,1.9z M2.9,0.4c-1.3,0-2.3,1-2.3,2.3s1,2.3,2.3,2.3s2.3-1,2.3-2.3S4.1,0.4,2.9,0.4L2.9,0.4L2.9,0.4L2.9,0.4z"
										/>
								</g>
							</mask>
							<path id="Fill-1_1_" sketch:type="MSShapeGroup" class="st18" d="M-3.2-3.4H8.9V8.7H-3.2V-3.4z"/>
						</g>
						<g id="Group-6" transform="translate(8.292308, 4.519481)">
							<g id="Clip-5">
							</g>
							<defs>
								<filter id="Adobe_OpacityMaskFilter_7_" filterUnits="userSpaceOnUse" x="-3.2" y="-3.4" width="10.6" height="10.5">
									<feColorMatrix  type="matrix" values="1 0 0 0 0  0 1 0 0 0  0 0 1 0 0  0 0 0 1 0"/>
								</filter>
							</defs>
							<mask maskUnits="userSpaceOnUse" x="-3.2" y="-3.4" width="10.6" height="10.5" id="mask-16_1_">
								<g class="st19">
									<path id="path-15_1_" class="st2" d="M2.1,1.4c0.3,0,0.5,0.2,0.5,0.5S2.4,2.4,2.1,2.4S1.6,2.2,1.6,1.9S1.9,1.4,2.1,1.4
										L2.1,1.4L2.1,1.4z M2.1,0.4c-0.8,0-1.5,0.7-1.5,1.5s0.7,1.5,1.5,1.5s1.5-0.7,1.5-1.5S2.9,0.4,2.1,0.4L2.1,0.4L2.1,0.4
										L2.1,0.4z"/>
								</g>
							</mask>
							<path id="Fill-4" sketch:type="MSShapeGroup" class="st20" d="M-3.2-3.4H7.4V7.2H-3.2V-3.4z"/>
						</g>
						<g id="Group-13_1_" transform="translate(4.523077, 12.051948)">
							<g id="Group-9" transform="translate(0.753846, 0.000000)">
								<g id="Clip-8">
								</g>
								<defs>
									<filter id="Adobe_OpacityMaskFilter_8_" filterUnits="userSpaceOnUse" x="-3.8" y="-3.8" width="58" height="102.4">
										<feColorMatrix  type="matrix" values="1 0 0 0 0  0 1 0 0 0  0 0 1 0 0  0 0 0 1 0"/>
									</filter>
								</defs>
								<mask maskUnits="userSpaceOnUse" x="-3.8" y="-3.8" width="58" height="102.4" id="mask-18_1_">
									<g class="st21">
										<path id="path-17_1_" class="st2" d="M0,0h50.5v94.9H0V0L0,0z"/>
									</g>
								</mask>
								<path id="Fill-7" sketch:type="MSShapeGroup" class="st22" d="M-3.8-3.8h58V98.7h-58V-3.8z"/>
							</g>
							<g id="Group-12">
								<g id="Clip-11">
								</g>
								<defs>
									<filter id="Adobe_OpacityMaskFilter_9_" filterUnits="userSpaceOnUse" x="-3.8" y="-3.8" width="59.6" height="103.2">
										<feColorMatrix  type="matrix" values="1 0 0 0 0  0 1 0 0 0  0 0 1 0 0  0 0 0 1 0"/>
									</filter>
								</defs>
								<mask maskUnits="userSpaceOnUse" x="-3.8" y="-3.8" width="59.6" height="103.2" id="mask-20_1_">
									<g class="st23">
										<path id="path-19_1_" class="st2" d="M0,0h52v95.7H0V0L0,0z M50.5,0.8v93.4h-49V0.8H50.5L50.5,0.8z"/>
									</g>
								</mask>
								<path id="Fill-10" sketch:type="MSShapeGroup" class="st24" d="M-3.8-3.8h59.6V99.4H-3.8V-3.8z"/>
							</g>
						</g>
						<g id="Group-16" transform="translate(4.523077, 12.051948)">
							<g id="Clip-15">
							</g>
							<defs>
								<filter id="Adobe_OpacityMaskFilter_10_" filterUnits="userSpaceOnUse" x="-82.2" y="-38.4" width="145.3" height="138.6">
									<feColorMatrix  type="matrix" values="1 0 0 0 0  0 1 0 0 0  0 0 1 0 0  0 0 0 1 0"/>
								</filter>
							</defs>
							<mask maskUnits="userSpaceOnUse" x="-82.2" y="-38.4" width="145.3" height="138.6" id="mask-22_1_">
								<g class="st25">
									<path id="path-21_1_" class="st2" d="M23.3,0h23.3L11.4,95.7H5.7H0V0H23.3L23.3,0z"/>
								</g>
							</mask>
							<path id="Fill-14" sketch:type="MSShapeGroup" class="st26" d="M-82.2-38.4H63.2v138.6H-82.2V-38.4z"/>
						</g>
						<g id="Group-19">
							<g id="Clip-18">
							</g>
							<defs>
								<filter id="Adobe_OpacityMaskFilter_11_" filterUnits="userSpaceOnUse" x="-3.8" y="-3.4" width="68.6" height="130.5">
									<feColorMatrix  type="matrix" values="1 0 0 0 0  0 1 0 0 0  0 0 1 0 0  0 0 0 1 0"/>
								</filter>
							</defs>
							<mask maskUnits="userSpaceOnUse" x="-3.8" y="-3.4" width="68.6" height="130.5" id="mask-24_1_">
								<g class="st27">
									<path id="path-23_1_" class="st2" d="M0,116.7V7.2c0-2.5,2-4.8,4.4-5.1C10,1.4,20,0.4,30.6,0.4c10.6,0,20.5,1.1,26.1,1.7
										c2.5,0.3,4.4,2.6,4.4,5.1v109.4c0,1.7-1.2,3.8-2.8,4.1c-4.2,1.1-13.3,2.5-27.7,2.5s-23.4-1.4-27.7-2.5
										C1.3,120.4,0,118.3,0,116.7L0,116.7L0,116.7z"/>
								</g>
							</mask>
							<path id="Fill-17" sketch:type="MSShapeGroup" class="st28" d="M-3.8-3.4h68.6v130.5H-3.8V-3.4z"/>
						</g>
						<path id="Stroke-20" sketch:type="MSShapeGroup" class="st5" d="M0,116.7V7.2c0-2.5,2-4.8,4.4-5.1C10,1.4,20,0.4,30.6,0.4
							c10.6,0,20.5,1.1,26.1,1.7c2.5,0.3,4.4,2.6,4.4,5.1v109.4c0,1.7-1.2,3.8-2.8,4.1c-4.2,1.1-13.3,2.5-27.7,2.5
							s-23.4-1.4-27.7-2.5C1.3,120.4,0,118.3,0,116.7L0,116.7L0,116.7z"/>
						<g id="Group-23" transform="translate(27.892308, 3.766234)">
							<g id="Clip-22">
							</g>
							<defs>
								<filter id="Adobe_OpacityMaskFilter_12_" filterUnits="userSpaceOnUse" x="-3.8" y="-3.5" width="12.1" height="12.1">
									<feColorMatrix  type="matrix" values="1 0 0 0 0  0 1 0 0 0  0 0 1 0 0  0 0 0 1 0"/>
								</filter>
							</defs>
							<mask maskUnits="userSpaceOnUse" x="-3.8" y="-3.5" width="12.1" height="12.1" id="mask-26_1_">
								<g class="st29">
									<path id="path-25_1_" class="st2" d="M2.3,1.8C2.7,1.8,3,2.1,3,2.6S2.7,3.3,2.3,3.3S1.5,3,1.5,2.6S1.8,1.8,2.3,1.8L2.3,1.8
										L2.3,1.8z M2.3,0.3C1,0.3,0,1.3,0,2.6s1,2.3,2.3,2.3s2.3-1,2.3-2.3S3.5,0.3,2.3,0.3L2.3,0.3L2.3,0.3L2.3,0.3z"/>
								</g>
							</mask>
							<path id="Fill-21" sketch:type="MSShapeGroup" class="st30" d="M-3.8-3.5H8.3V8.6H-3.8V-3.5z"/>
						</g>
						<g id="Group-26" transform="translate(9.046154, 4.519481)">
							<g id="Clip-25">
							</g>
							<defs>
								<filter id="Adobe_OpacityMaskFilter_13_" filterUnits="userSpaceOnUse" x="-3.8" y="-3.5" width="10.6" height="10.5">
									<feColorMatrix  type="matrix" values="1 0 0 0 0  0 1 0 0 0  0 0 1 0 0  0 0 0 1 0"/>
								</filter>
							</defs>
							<mask maskUnits="userSpaceOnUse" x="-3.8" y="-3.5" width="10.6" height="10.5" id="mask-28_1_">
								<g class="st31">
									<path id="path-27_1_" class="st2" d="M1.5,1.3C1.8,1.3,2,1.5,2,1.8S1.8,2.3,1.5,2.3S1,2.1,1,1.8S1.2,1.3,1.5,1.3L1.5,1.3
										L1.5,1.3z M1.5,0.3C0.7,0.3,0,1,0,1.8s0.7,1.5,1.5,1.5S3,2.6,3,1.8S2.3,0.3,1.5,0.3L1.5,0.3L1.5,0.3L1.5,0.3z"/>
								</g>
							</mask>
							<path id="Fill-24" sketch:type="MSShapeGroup" class="st32" d="M-3.8-3.5H6.8V7.1H-3.8V-3.5z"/>
						</g>
						<g id="Group-33" transform="translate(4.523077, 11.298701)">
							<g id="Group-29" transform="translate(0.753846, 0.753247)">
								<g id="Clip-28">
								</g>
								<defs>
									<filter id="Adobe_OpacityMaskFilter_14_" filterUnits="userSpaceOnUse" x="-3.8" y="-3.8" width="58" height="101.7">
										<feColorMatrix  type="matrix" values="1 0 0 0 0  0 1 0 0 0  0 0 1 0 0  0 0 0 1 0"/>
									</filter>
								</defs>
								<mask maskUnits="userSpaceOnUse" x="-3.8" y="-3.8" width="58" height="101.7" id="mask-30_1_">
									<g class="st33">
										<path id="path-29_1_" class="st2" d="M0,0h50.5v94.2H0V0L0,0z"/>
									</g>
								</mask>
								<path id="Fill-27" sketch:type="MSShapeGroup" class="st34" d="M-3.8-3.8h58V97.9h-58V-3.8z"/>
							</g>
							<g id="Group-32">
								<g id="Clip-31">
								</g>
								<defs>
									<filter id="Adobe_OpacityMaskFilter_15_" filterUnits="userSpaceOnUse" x="-3.8" y="-3.8" width="59.6" height="103.2">
										<feColorMatrix  type="matrix" values="1 0 0 0 0  0 1 0 0 0  0 0 1 0 0  0 0 0 1 0"/>
									</filter>
								</defs>
								<mask maskUnits="userSpaceOnUse" x="-3.8" y="-3.8" width="59.6" height="103.2" id="mask-32_1_">
									<g class="st35">
										<path id="path-31_1_" class="st2" d="M0,0h52v95.7H0V0L0,0z M50.5,1.5v92.6h-49V1.5H50.5L50.5,1.5z"/>
									</g>
								</mask>
								<path id="Fill-30" sketch:type="MSShapeGroup" class="st36" d="M-3.8-3.8h59.6V99.4H-3.8V-3.8z"/>
							</g>
						</g>
						<g id="Group-36" transform="translate(4.523077, 11.298701)">
							<g id="Clip-35">
							</g>
							<defs>
								<filter id="Adobe_OpacityMaskFilter_16_" filterUnits="userSpaceOnUse" x="-82.2" y="-38.4" width="145.5" height="138.6">
									<feColorMatrix  type="matrix" values="1 0 0 0 0  0 1 0 0 0  0 0 1 0 0  0 0 0 1 0"/>
								</filter>
							</defs>
							<mask maskUnits="userSpaceOnUse" x="-82.2" y="-38.4" width="145.5" height="138.6" id="mask-34_1_">
								<g class="st37">
									<path id="path-33_1_" class="st2" d="M23.4,0h23.4l0,0L11.6,95.7H5.8H0V0H23.4L23.4,0z"/>
								</g>
							</mask>
							<path id="Fill-34" sketch:type="MSShapeGroup" class="st38" d="M-82.2-38.4H63.3v138.6H-82.2V-38.4z"/>
						</g>
					</g>
				</g>
			</g>
		</g>
	</g>
</g>
<path class="st39" d="M102.2,188.3H91.1c-47.8,0-86.6-38.8-86.6-86.6V90.6C4.5,42.8,43.2,4,91.1,4h11.2c47.8,0,86.6,38.8,86.6,86.6
	v11.2C188.8,149.6,150.1,188.3,102.2,188.3z"/>
<g>
	<path class="st40" d="M175.2,119.2c-0.9,0.9-0.6,2.1-0.9,3.2c-2,8.6-7,15-14.6,19.3c-4,2.2-8.3,3.5-12.9,3.5
		c-34.7,0-69.4,0-104-0.1c-4.9,0-9.3-2.3-13.2-5.2c-6.3-4.7-9.9-11.1-10.7-18.8c-0.8-7.3,1.4-14,6-19.7c3.7-4.7,8.5-7.6,14.3-9.1
		c1.5-0.4,3-0.5,4.5-0.7c0.9-0.1,1.3-0.4,0.9-1.5c-1.3-3.7-1.7-7.5-1.5-11.4c0.4-6.7,2.6-12.7,6.7-18c3.7-4.8,8.3-8.4,14-10.5
		c4.6-1.7,9.3-2.5,14.3-2c4.6,0.5,9,1.6,13,3.8c6.3,3.5,11,8.5,13.9,15.1c1.1,2.5,0.9,2.1,3,1.4c9.7-3.2,18.2-1.1,25.5,5.9
		c3.1,3,5,6.9,6.1,11.1c0.2,0.9,0.7,1.1,1.5,0.9c5.1-1,9.9-0.3,14.8,1.4c7,2.5,12.2,7,15.8,13.4c1.9,3.3,3,6.9,3.5,10.6
		c0,0.3,0.1,0.5,0.3,0.7C175.2,114.7,175.2,117,175.2,119.2z"/>
</g>
</svg>
