<?xml version="1.0" encoding="utf-8"?>
<!-- Generator: Adobe Illustrator 22.1.0, SVG Export Plug-In . SVG Version: 6.00 Build 0)  -->
<svg version="1.1" id="Livello_1" xmlns:sketch="http://www.bohemiancoding.com/sketch/ns"
	 xmlns="http://www.w3.org/2000/svg" xmlns:xlink="http://www.w3.org/1999/xlink" x="0px" y="0px" viewBox="0 0 193 193"
	 style="enable-background:new 0 0 193 193;" xml:space="preserve">
<style type="text/css">
	.st0{fill:#FFFFFF;}
	.st1{display:none;fill:none;stroke:#1485E0;stroke-width:2;}
	.st2{display:none;fill:#FFFFFF;stroke:#1485E0;stroke-width:4;}
	.st3{display:none;}
	.st4{display:inline;}
	.st5{filter:url(#Adobe_OpacityMaskFilter);}
	.st6{mask:url(#mask-2_1_);fill:#C4E1F7;stroke:#1485E0;stroke-width:2;}
	.st7{filter:url(#Adobe_OpacityMaskFilter_1_);}
	.st8{mask:url(#mask-6_1_);}
	.st9{fill:#FFFFFF;stroke:#1485E0;stroke-width:2;}
	.st10{filter:url(#Adobe_OpacityMaskFilter_2_);}
	.st11{mask:url(#mask-8_1_);fill:none;stroke:#1485E0;stroke-width:2.0298;}
	.st12{filter:url(#Adobe_OpacityMaskFilter_3_);}
	.st13{opacity:0.44;mask:url(#mask-10_1_);fill:#FFFFFF;enable-background:new    ;}
	.st14{fill:#FFFFFF;stroke:#F9A326;stroke-miterlimit:10;}
	.st15{fill:#F9A326;stroke:#F9A326;stroke-miterlimit:10;}
</style>
<title>coffee</title>
<desc>Created with Sketch Beta.</desc>
<g id="Page-1" sketch:type="MSPage">
	<g id="WINNER" transform="translate(-259.000000, -3460.000000)" sketch:type="MSArtboardGroup">
		<g id="Group-_x2B_-super-icons" transform="translate(194.000000, 3302.000000)" sketch:type="MSLayerGroup">
			<g id="super-icons" transform="translate(65.000000, 158.000000)">
				<g id="coffee">
					<rect id="Rectangle-21" sketch:type="MSShapeGroup" class="st0" width="193" height="193">
					</rect>
					<path id="XMLID_202_" sketch:type="MSShapeGroup" class="st1" d="M89.2,179.7c-1.7,0.4-3.4,0.5-5.1,0.6c-0.7,0-1.5,0.1-2.2,0.1
						"/>
					<path id="XMLID_201_" sketch:type="MSShapeGroup" class="st1" d="M59.2,174.9c-22.2-12.1-30.4-40-18.3-62.3s40-30.5,62.2-18.4
						s30.4,40,18.3,62.3c-5.5,10-14.2,17.3-24.1,21.1"/>
					<path id="take" sketch:type="MSShapeGroup" class="st2" d="M162.1,37.1l-13.8,13.8c-2.8,2.8-7.5,2.8-10.4,0l-7-7
						c-2.8-2.8-2.8-7.5,0-10.4l13.8-13.8c2.8-2.8,7.5-2.8,10.4,0l7,7C164.9,29.5,164.9,34.1,162.1,37.1L162.1,37.1z"/>
					<ellipse id="base_4_" sketch:type="MSShapeGroup" class="st2" cx="98.1" cy="88.1" rx="64.2" ry="64.3">
					</ellipse>
					<g id="XMLID_847_" transform="translate(44.000000, 34.134328)" class="st3">
						<g id="inside-Clipped" class="st4">
							<g id="inside_1_">
							</g>
							<defs>
								<filter id="Adobe_OpacityMaskFilter" filterUnits="userSpaceOnUse" x="1.2" y="1" width="105.9" height="106">
									<feColorMatrix  type="matrix" values="1 0 0 0 0  0 1 0 0 0  0 0 1 0 0  0 0 0 1 0"/>
								</filter>
							</defs>
							<mask maskUnits="userSpaceOnUse" x="1.2" y="1" width="105.9" height="106" id="mask-2_1_">
								<g class="st5">
									<ellipse id="path-1_1_" class="st0" cx="54.1" cy="54" rx="53.7" ry="53.7"/>
								</g>
							</mask>
							<ellipse id="inside" sketch:type="MSShapeGroup" class="st6" cx="54.1" cy="54" rx="51.9" ry="52">
							</ellipse>
						</g>
						<g id="cream-Clipped" class="st4">
							<g id="inside_2_">
							</g>
						</g>
						<g id="XMLID_849_-Clipped" class="st4">
							<g id="inside_3_">
							</g>
							<defs>
								<filter id="Adobe_OpacityMaskFilter_1_" filterUnits="userSpaceOnUse" x="48.2" y="18.2" width="76.3" height="85">
									<feColorMatrix  type="matrix" values="1 0 0 0 0  0 1 0 0 0  0 0 1 0 0  0 0 0 1 0"/>
								</filter>
							</defs>
							<mask maskUnits="userSpaceOnUse" x="48.2" y="18.2" width="76.3" height="85" id="mask-6_1_">
								<g class="st7">
									<ellipse id="path-5_1_" class="st0" cx="54.1" cy="54" rx="53.7" ry="53.7"/>
								</g>
							</mask>
							<g id="XMLID_849_" sketch:type="MSShapeGroup" class="st8">
								<g id="XMLID_199_" transform="translate(48.888889, 18.358209)">
									<path class="st9" d="M38.4,5.8C32,17.6,54.9,23,46.7,38.1C38.3,53.6,7,50.4,1.5,60.7c-3.2,5.9,0.1,13.8,10.9,19
										c20.5,9.9,45.6,1.5,56.7-19c11.2-20.8,5-45.8-15.2-57.8C53.8,3.1,43.3-3.4,38.4,5.8L38.4,5.8z"/>
								</g>
							</g>
						</g>
						<g id="XMLID_198_-Clipped" class="st4">
							<g id="inside_4_">
							</g>
							<defs>
								<filter id="Adobe_OpacityMaskFilter_2_" filterUnits="userSpaceOnUse" x="1.9" y="0.8" width="106.2" height="106.3">
									<feColorMatrix  type="matrix" values="1 0 0 0 0  0 1 0 0 0  0 0 1 0 0  0 0 0 1 0"/>
								</filter>
							</defs>
							<mask maskUnits="userSpaceOnUse" x="1.9" y="0.8" width="106.2" height="106.3" id="mask-8_1_">
								<g class="st10">
									<ellipse id="path-7_1_" class="st0" cx="54.1" cy="54" rx="53.7" ry="53.7"/>
								</g>
							</mask>
							<ellipse id="XMLID_198_" sketch:type="MSShapeGroup" class="st11" cx="55" cy="54" rx="52.1" ry="52.1">
							</ellipse>
						</g>
						<g id="light_7_-Clipped" class="st4">
							<g id="inside_5_">
							</g>
							<defs>
								<filter id="Adobe_OpacityMaskFilter_3_" filterUnits="userSpaceOnUse" x="-123.4" y="-74.7" width="223.4" height="213">
									<feColorMatrix  type="matrix" values="1 0 0 0 0  0 1 0 0 0  0 0 1 0 0  0 0 0 1 0"/>
								</filter>
							</defs>
							<mask maskUnits="userSpaceOnUse" x="-123.4" y="-74.7" width="223.4" height="213" id="mask-10_1_">
								<g class="st12">
									<ellipse id="path-9_1_" class="st0" cx="54.1" cy="54" rx="53.7" ry="53.7"/>
								</g>
							</mask>
							<path id="light_7_" sketch:type="MSShapeGroup" class="st13" d="M21.8,138.3h-145.2v-213H100L21.8,138.3z"/>
						</g>
					</g>
				</g>
			</g>
		</g>
	</g>
</g>
<path class="st14" d="M100,186.6h-7.1c-47.8,0-86.6-38.8-86.6-86.6v-7.1c0-47.8,38.8-86.6,86.6-86.6h7.1c47.8,0,86.6,38.8,86.6,86.6
	v7.1C186.6,147.8,147.8,186.6,100,186.6z"/>
<g>
	<path class="st15" d="M49.5,41.8c-0.1-0.1-0.2-0.2-0.3-0.1c0.1,0.1,0.1,0.1,0.2,0.2c2,3.2,4.3,6.2,6.5,9.3c1.8,2.5,3.6,5,5.5,7.3
		c0.5,0.6,0.9,1.3,1.4,1.9c2.2,2.9,4.3,5.7,6.7,8.4c2.1,2.8,4.3,5.5,6.6,8.1c2.8,3.6,5.9,7,8.9,10.4c1.3,1.5,2.8,3,4.1,4.5
		c0.1,0.1,0.4,0.3,0.2,0.6c-0.2,0.3-0.4,0-0.5-0.1c-2-1.3-4.1-2.6-6-4c-3-2.2-6.1-4.2-9.2-6.3c-0.1-0.1-0.2-0.2-0.4-0.3
		c-4.8-3.4-9.5-6.9-14.2-10.5c-2.7-2-5.4-4.1-8-6.2c-0.1-0.1-0.2-0.2-0.3-0.3c-6.2-4.9-12.3-9.9-18.2-15.3c-0.2-0.1-0.3-0.4-0.6-0.3
		c0,0.4,0.3,0.6,0.4,0.9c2.6,4.5,6.2,8.2,9.4,12.3c0.7,0.9,1.5,1.8,2.2,2.7c1.9,2.6,4.1,5.2,6.2,7.7c2.8,3.3,5.5,6.7,8.5,9.9
		c1.3,1.6,2.7,3.2,4.1,4.7c1.9,2,3.6,4.1,5.6,6c2.1,2.4,4.4,4.7,6.7,6.9c2,2.1,4,4.2,6.2,6c1.7,1.7,3.4,3.3,5.2,4.8
		c0.5,0.5,1,1,1.5,1.5c1.5,1.2,2.8,2.6,4.4,3.7c2.3,2.1,4.7,4,7.2,5.8c0.2,0.2,0.3,0.4,0.5,0.6c-2.2,1.5-4.6,2.5-6.9,3.7
		c-0.2,0.1-0.5,0.1-0.7,0.2c-6,2.5-12.2,3.8-18.7,4.2c-8.2,0.5-16.2-0.4-24.2-2.5c-2.7-0.7-5.4-1.6-8-2.5c-0.1-0.1-0.2-0.1-0.3-0.2
		c-5.1-2-10.1-4.3-14.9-7c-3-1.7-5.8-3.7-8.6-5.7c0-0.1-0.1-0.1-0.1-0.1c0,0,0,0.1,0,0.2c1,1.8,2.2,3.4,3.4,5
		c2.1,2.8,4.2,5.6,6.7,8.1c2.1,2.4,4.3,4.7,6.7,6.7c1.9,1.9,3.9,3.5,6,5.1c2,1.7,4.1,3.2,6.4,4.6c1.4,1.1,2.9,1.9,4.4,2.8
		c2.1,1.2,4.2,2.5,6.4,3.4c3,1.6,6.1,2.9,9.3,4.1c8.1,2.9,16.4,4.8,25,5.3c9.5,0.5,18.6-0.8,27.5-4.2c4-1.5,7.7-4,11.8-5.3
		c2.9-0.8,5.7-1.7,8.8-1.8c1.8-0.1,3.6,0,5.5,0.2c2,0.3,3.8,1,5.6,1.7c4,2.2,6.9,5.4,9.1,9.4c0.2,0.4,0.3,1.2,1,1.2
		c0.7-0.1,0.8-0.8,0.9-1.4c0.8-3.1,0.8-6.3,0.4-9.5c-0.2-2.1-0.5-4.2-1.1-6.2c-0.2-1.6-0.9-3.1-1.4-4.7c-0.5-1.8-1.2-3.5-2.1-5.2
		c-0.9-2.2-2.1-4.2-3.4-6.2c-1-1.8-2.2-3.4-3.5-5c-0.5-0.5-0.5-1-0.3-1.7c0.4-1.2,0.6-2.4,0.9-3.6c0.4-1.6,0.7-3.3,0.9-5
		c0.1-1.8,0.3-3.7,0.4-5.5c0.2-1.9,0.1-3.8,0-5.7c0.1-1.1-0.2-2.1-0.3-3.1c-0.1-2.6-0.6-5.2-1.2-7.7c-0.5-3.1-1.4-6-2.5-8.9
		c-1.2-3.7-2.8-7.4-4.6-10.8c-1.7-3.4-3.6-6.7-5.8-9.8c-0.1-0.2-0.1-0.3-0.2-0.4c-8.1-11.8-18.3-21.5-30.4-29.1
		c-0.2-0.1-0.4-0.4-0.8-0.3c0.1,0.2,0.2,0.4,0.4,0.6c3.8,5.4,7.1,11.1,9.7,17.1c1.8,4,3.2,8.2,4.4,12.4c0.8,3.2,1.4,6.5,1.9,9.8
		c0.4,3.5,0.5,7.1,0.5,10.7c-0.2,2.9-0.5,5.9-1,8.8c-0.7,3.1-1.5,6.2-2.6,9.3c-0.2,0.7-0.4,0.7-1,0.4c-2.8-1.6-5.4-3.5-8.1-5.2
		c-0.2-0.2-0.4-0.4-0.7-0.5c-4.3-2.9-8.5-5.9-12.6-9.1c-3-2.3-6.1-4.6-9.1-6.9c-3.4-2.8-6.9-5.6-10.3-8.4c-4-3.4-7.9-6.9-11.9-10.3
		c-0.2-0.2-0.4-0.4-0.6-0.6c-3.2-3-6.4-6-9.6-9C54,46.3,51.8,44,49.5,41.8z M31.8,49.1C31.8,49.1,31.8,49.1,31.8,49.1
		c0.1-0.1,0-0.2,0-0.2c-0.1,0-0.1,0-0.1,0.1C31.7,49.1,31.7,49.1,31.8,49.1z"/>
	<path class="st15" d="M157.9,132.5c0.8,1.7,1.6,3.4,2.1,5.2c-28.3,0-56.5,0-84.8,0c-11.1,0-22.2,0-33.3,0c-0.5,0-1-0.1-1.3,0.4
		c-2.1-1.6-4.2-3.3-6-5.1c0-1,0.7-0.7,1.2-0.7c39.9,0,79.7,0,119.6,0C156.1,132.2,157,132.2,157.9,132.5z"/>
	<path class="st15" d="M57.7,148.9c-2.2-1-4.3-2.2-6.4-3.4c-1.5-0.9-3-1.8-4.4-2.8c0.2-0.6,0.7-0.3,1.1-0.3c37.8,0,75.6,0,113.3,0
		c0.6,2,0.9,4.1,1.1,6.2c-3.4,0-6.8,0-10.1,0c-0.4,0-0.9,0-1.2,0.3c-1.8-0.7-3.6-1.4-5.6-1.7c-1.8-0.3-3.6-0.3-5.5-0.2
		c-3,0.2-5.9,1-8.8,1.8c-0.4-0.4-0.9-0.4-1.4-0.4c-23.6,0-47.2,0-70.8,0c-0.1,0-0.3,0-0.4,0C58.1,148.3,57.8,148.5,57.7,148.9z"/>
	<path class="st15" d="M74.9,100.2c-2.3-2.2-4.6-4.5-6.7-6.9c0.3-0.3,0.7-0.2,1.1-0.2c8.8,0,17.7,0,26.5,0c5.1,0,10.2-0.2,15.3,0.1
		c2.7,1.7,5.3,3.5,8.1,5.2c0.6,0.4,0.8,0.3,1-0.4c1.1-3,1.9-6.1,2.6-9.3c0.3,0.1,0.7,0.2,1,0.2c9.2,0,18.4,0,27.6,0
		c0.6,2.5,1.1,5.1,1.2,7.7c0,1,0.4,2.1,0.3,3.1c-0.4-0.1-0.9-0.2-1.4-0.2c-25.1,0-50.2,0-75.4,0c-0.2,0-0.4,0-0.6,0
		C75.1,99.7,74.9,99.9,74.9,100.2z"/>
	<path class="st15" d="M157.9,132.5c-0.8-0.3-1.7-0.4-2.6-0.4c-39.9,0-79.7,0-119.6,0c-0.5,0-1.2-0.2-1.2,0.7
		c-2.4-2-4.6-4.3-6.7-6.7c0.1-0.5,0.5-0.3,0.7-0.3c3.9,0,7.9,0,11.8,0c0.4,0,0.8,0.4,1.2,0c2.7,0.9,5.3,1.8,8,2.5
		c7.9,2.1,16,3,24.2,2.5c6.4-0.4,12.7-1.7,18.7-4.2c0.2-0.1,0.5-0.2,0.7-0.2c0.4,0.2,0.8,0.2,1.3,0.2c19.6,0,39.1,0,58.7,0
		c0.5,0,1-0.1,1.4-0.2C155.8,128.3,156.9,130.4,157.9,132.5z"/>
	<path class="st15" d="M161.3,142.4c-37.8,0-75.6,0-113.3,0c-0.4,0-0.9-0.3-1.1,0.3c-2.2-1.4-4.3-2.9-6.4-4.6
		c0.4-0.5,0.9-0.4,1.3-0.4c11.1,0,22.2,0,33.3,0c28.3,0,56.5,0,84.8,0C160.4,139.2,161.1,140.7,161.3,142.4z"/>
	<path class="st15" d="M57.7,148.9c0.1-0.4,0.4-0.6,0.8-0.5c0.1,0,0.3,0,0.4,0c23.6,0,47.2,0,70.8,0c0.5,0,1,0,1.4,0.4
		c-4.1,1.3-7.8,3.7-11.8,5.3c-8.9,3.4-18,4.7-27.5,4.2c-8.6-0.4-16.9-2.3-25-5.3C63.8,151.8,60.7,150.5,57.7,148.9z"/>
	<path class="st15" d="M111.1,93.3c-5.1-0.4-10.2-0.1-15.3-0.1c-8.8-0.1-17.7,0-26.5,0c-0.4,0-0.8-0.2-1.1,0.2c-2-1.9-3.7-4-5.6-6
		c-1.4-1.5-2.8-3-4.1-4.7c0.6-0.3,1.2-0.4,1.8-0.4c1.2,0,2.3,0,3.5,0c3.1,0.1,6.2-0.2,9.2,0.2c0.3,0,0.4-0.1,0.5-0.4
		c3.1,2.1,6.1,4.2,9.2,6.3c2,1.4,4,2.7,6,4c0.1,0.1,0.3,0.3,0.5,0.1c0.2-0.3-0.1-0.4-0.2-0.6c-1.4-1.5-2.8-3-4.1-4.5
		c-3-3.4-6.1-6.8-8.9-10.4c0.4-0.2,0.8-0.2,1.2-0.2c3.8,0,7.6,0,11.4,0c3,2.3,6,4.6,9.1,6.9c4.1,3.1,8.4,6.1,12.6,9.1
		C110.7,92.9,110.9,93.1,111.1,93.3z"/>
	<path class="st15" d="M74.9,100.2c0-0.4,0.2-0.6,0.6-0.6c0.2,0,0.4,0,0.6,0c25.1,0,50.2,0,75.4,0c0.5,0,0.9,0,1.4,0.2
		c0.1,1.9,0.3,3.8,0,5.7c-23.4,0-46.9,0-70.3,0c-0.2,0-0.5,0-0.7,0c-0.5,0-0.8,0.2-0.8,0.7C78.9,104.4,76.9,102.3,74.9,100.2z"/>
	<path class="st15" d="M81.1,106.3c0-0.6,0.3-0.8,0.8-0.7c0.2,0,0.5,0,0.7,0c23.4,0,46.9,0,70.3,0c-0.1,1.8-0.3,3.7-0.4,5.5
		c-0.6-0.2-1.1-0.2-1.7-0.2c-20.9,0-41.8,0-62.8,0c-0.6,0-1.1,0-1.7,0.2C84.5,109.5,82.8,108,81.1,106.3z"/>
	<path class="st15" d="M86.3,111.1c0.5-0.2,1.1-0.2,1.7-0.2c20.9,0,41.8,0,62.8,0c0.6,0,1.1,0,1.7,0.2c-0.2,1.7-0.5,3.3-0.9,5
		c-0.2,0-0.3,0-0.5,0c-19.3,0-38.7,0-58,0c-0.3,0-0.6-0.1-0.8,0.2c-1.6-1.1-2.9-2.5-4.4-3.7C87.3,112.1,86.8,111.6,86.3,111.1z"/>
	<path class="st15" d="M92.3,116.2c0.2-0.3,0.5-0.2,0.8-0.2c19.3,0,38.7,0,58,0c0.2,0,0.3,0,0.5,0c-0.3,1.2-0.5,2.4-0.9,3.6
		c-0.2,0.7-0.2,1.2,0.3,1.7c-0.4,0.2-0.8,0.2-1.2,0.2c-16.3,0-32.6,0-49,0c-0.2,0-0.5,0-0.7,0c-0.4,0-0.6,0.2-0.6,0.5
		C97,120.3,94.6,118.3,92.3,116.2z"/>
	<path class="st15" d="M121.4,59.6c-1.2-4.2-2.6-8.4-4.4-12.4c-2.7-6-5.9-11.7-9.7-17.1c-0.1-0.2-0.2-0.4-0.4-0.6
		c0.4-0.1,0.6,0.1,0.8,0.3c12.2,7.6,22.3,17.3,30.4,29.1c0.1,0.1,0.2,0.3,0.2,0.4c-5.1,0-10.2,0-15.3,0
		C122.6,59.4,122,59.4,121.4,59.6z"/>
	<path class="st15" d="M99.5,122.1c0-0.4,0.3-0.6,0.6-0.5c0.2,0,0.5,0,0.7,0c16.3,0,32.6,0,49,0c0.4,0,0.8,0.1,1.2-0.2
		c1.3,1.5,2.5,3.2,3.5,5c-0.5,0.1-0.9,0.2-1.4,0.2c-19.6,0-39.1,0-58.7,0c-0.4,0-0.9,0.1-1.3-0.2c2.3-1.1,4.7-2.2,6.9-3.7
		C99.8,122.5,99.7,122.3,99.5,122.1z"/>
	<path class="st15" d="M123.8,80.1c0-3.6-0.1-7.1-0.5-10.7c0.5,0,1.1-0.2,1.6-0.2c6.4,0,12.9,0,19.3,0c1.8,3.5,3.4,7.1,4.6,10.8
		C140.5,80.1,132.2,80.1,123.8,80.1z"/>
	<path class="st15" d="M123.8,80.1c8.4,0,16.7,0,25.1,0c1,2.9,1.9,5.9,2.5,8.9c-9.2,0-18.4,0-27.6,0c-0.4,0-0.7-0.1-1-0.2
		C123.3,85.9,123.6,83,123.8,80.1z"/>
	<path class="st15" d="M73.6,82.1c0,0.3-0.2,0.4-0.5,0.4c-3.1-0.3-6.2-0.1-9.2-0.2c-1.2,0-2.3,0-3.5,0c-0.6,0-1.2,0.1-1.8,0.4
		c-3-3.2-5.7-6.6-8.5-9.9c-2.1-2.5-4.2-5-6.2-7.7c0.6-0.3,1.1-0.4,1.7-0.4c1.8,0.1,3.6-0.2,5.3,0.4c2.7,2.1,5.3,4.1,8,6.2
		c4.7,3.6,9.4,7.1,14.2,10.5C73.3,81.8,73.4,82,73.6,82.1z"/>
	<path class="st15" d="M144.2,69.2c-6.4,0-12.9,0-19.3,0c-0.6,0-1.1,0.2-1.6,0.2c-0.4-3.3-1.1-6.5-1.9-9.8c0.5-0.2,1.1-0.2,1.7-0.2
		c5.1,0,10.2,0,15.3,0C140.7,62.5,142.6,65.8,144.2,69.2z"/>
	<path class="st15" d="M88.7,76.8c-3.8,0-7.6,0-11.4,0c-0.4,0-0.9,0-1.2,0.2c-2.3-2.6-4.5-5.3-6.6-8.1c0.3-0.5,0.8-0.5,1.3-0.5
		c2.5,0,5.1,0,7.6,0C81.8,71.2,85.3,74,88.7,76.8z"/>
	<path class="st15" d="M41.5,125.8c-0.4,0.4-0.8,0-1.2,0c-3.9,0-7.9,0-11.8,0c-0.3,0-0.7-0.1-0.7,0.3c-2.4-2.5-4.6-5.3-6.7-8.1
		c-1.2-1.6-2.4-3.3-3.4-5c0,0,0.1-0.1,0.1-0.1c2.8,2,5.6,4,8.6,5.7c4.8,2.7,9.8,5.1,14.9,7C41.4,125.7,41.4,125.8,41.5,125.8z"/>
	<path class="st15" d="M78.4,68.4c-2.5,0-5.1,0-7.6,0c-0.5,0-1,0-1.3,0.5c-2.3-2.7-4.5-5.6-6.7-8.4c-0.5-0.6-0.9-1.3-1.4-1.9
		c0.1-0.5,0.6-0.5,1-0.5c1.4,0,2.8,0,4.2,0C70.5,61.5,74.4,64.9,78.4,68.4z"/>
	<path class="st15" d="M151,148.8c0.4-0.3,0.8-0.3,1.2-0.3c3.4,0,6.8,0,10.1,0c0.4,3.2,0.5,6.3-0.4,9.5c-0.1,0.6-0.2,1.3-0.9,1.4
		c-0.6,0.1-0.7-0.7-1-1.2C158,154.2,155,151,151,148.8z"/>
	<path class="st15" d="M51,65.1c-1.7-0.6-3.6-0.3-5.3-0.4c-0.6,0-1.2,0.1-1.7,0.4c-0.7-0.9-1.5-1.8-2.2-2.7c-3.2-4-6.7-7.8-9.4-12.3
		c-0.2-0.3-0.4-0.5-0.4-0.9c0.3,0,0.5,0.2,0.6,0.3c5.9,5.3,12,10.3,18.2,15.3C50.8,64.9,50.9,65,51,65.1z"/>
	<path class="st15" d="M66.5,58c-1.4,0-2.8,0-4.2,0c-0.4,0-0.8,0-1,0.5c-1.9-2.4-3.7-4.9-5.5-7.3c-2.2-3-4.4-6.1-6.5-9.3
		c0,0,0.1-0.1,0.1-0.1c2.3,2.2,4.5,4.5,6.8,6.6c3.2,3,6.4,6,9.6,9C66.1,57.6,66.3,57.8,66.5,58z"/>
	<path class="st15" d="M31.8,49.1c0,0-0.1,0-0.1-0.1c0-0.1,0-0.1,0.1-0.1C31.8,49,31.8,49,31.8,49.1C31.8,49.1,31.8,49.1,31.8,49.1z
		"/>
	<path class="st15" d="M49.4,42c-0.1-0.1-0.1-0.1-0.2-0.2c0.1-0.1,0.2,0,0.3,0.1C49.4,41.9,49.4,41.9,49.4,42z"/>
	<path class="st15" d="M17.7,113c0-0.1-0.1-0.2,0-0.2C17.7,112.8,17.8,112.8,17.7,113C17.8,113,17.7,113,17.7,113z"/>
</g>
</svg>
