<?xml version="1.0" encoding="utf-8"?>
<!-- Generator: Adobe Illustrator 22.1.0, SVG Export Plug-In . SVG Version: 6.00 Build 0)  -->
<svg version="1.1" id="Livello_1" xmlns:sketch="http://www.bohemiancoding.com/sketch/ns"
	 xmlns="http://www.w3.org/2000/svg" xmlns:xlink="http://www.w3.org/1999/xlink" x="0px" y="0px" viewBox="0 0 193 193"
	 style="enable-background:new 0 0 193 193;" xml:space="preserve">
<style type="text/css">
	.st0{fill:#FFFFFF;}
	.st1{display:none;fill:none;stroke:#1485E0;stroke-width:2;}
	.st2{display:none;fill:#FFFFFF;stroke:#1485E0;stroke-width:2;}
	.st3{display:none;fill:#C4E1F7;stroke:#1485E0;stroke-width:4.1818;}
	.st4{display:none;}
	.st5{display:inline;}
	.st6{filter:url(#Adobe_OpacityMaskFilter);}
	.st7{mask:url(#mask-2_1_);fill:#FFFFFF;stroke:#1485E0;stroke-width:2;}
	.st8{filter:url(#Adobe_OpacityMaskFilter_1_);}
	.st9{mask:url(#mask-4_1_);fill:#FFFFFF;stroke:#FFFFFF;}
	.st10{filter:url(#Adobe_OpacityMaskFilter_2_);}
	.st11{mask:url(#mask-8_1_);fill:none;stroke:#1485E0;stroke-width:2;}
	.st12{filter:url(#Adobe_OpacityMaskFilter_3_);}
	.st13{mask:url(#mask-10_1_);fill:none;stroke:#1485E0;stroke-width:2;}
	.st14{filter:url(#Adobe_OpacityMaskFilter_4_);}
	.st15{mask:url(#mask-12_1_);fill:none;stroke:#1485E0;stroke-width:2;}
	.st16{filter:url(#Adobe_OpacityMaskFilter_5_);}
	.st17{mask:url(#mask-16_1_);fill:#FFFFFF;stroke:#1485E0;stroke-width:2;}
	.st18{filter:url(#Adobe_OpacityMaskFilter_6_);}
	.st19{mask:url(#mask-20_1_);}
	.st20{fill:none;stroke:#1485E0;}
	.st21{filter:url(#Adobe_OpacityMaskFilter_7_);}
	.st22{opacity:0.44;mask:url(#mask-22_1_);fill:#FFFFFF;enable-background:new    ;}
	.st23{display:inline;fill:#FFFFFF;stroke:#1485E0;stroke-width:4;}
	.st24{display:inline;fill:none;stroke:#1485E0;stroke-width:2;stroke-dasharray:2,2;}
	.st25{fill:#FFFFFF;stroke:#F9A326;stroke-miterlimit:10;}
	.st26{fill:#F9A326;stroke:#FFFFFF;stroke-miterlimit:10;}
	.st27{fill:#FFFFFF;stroke:#FFFFFF;stroke-miterlimit:10;}
</style>
<title>clock</title>
<desc>Created with Sketch Beta.</desc>
<g id="Page-1" sketch:type="MSPage">
	<g id="WINNER" transform="translate(-991.000000, -3460.000000)" sketch:type="MSArtboardGroup">
		<g id="Group-_x2B_-super-icons" transform="translate(194.000000, 3302.000000)" sketch:type="MSLayerGroup">
			<g id="super-icons" transform="translate(65.000000, 158.000000)">
				<g id="clock" transform="translate(732.000000, 0.000000)">
					<rect id="Rectangle-21" x="88.8" y="39" sketch:type="MSShapeGroup" class="st0" width="85.7" height="85.7">
					</rect>
					<ellipse id="XMLID_126_" sketch:type="MSShapeGroup" class="st1" cx="129" cy="51.8" rx="11.7" ry="11.7">
					</ellipse>
					<rect id="XMLID_125_" x="126.8" y="62.6" sketch:type="MSShapeGroup" class="st2" width="4.7" height="7">
					</rect>
					<ellipse id="XMLID_124_" sketch:type="MSShapeGroup" class="st3" cx="129" cy="94.4" rx="26.8" ry="26.8">
					</ellipse>
					<g id="XMLID_679_" transform="translate(40.806452, 75.600000)" class="st4">
						<g id="XMLID_123_-Clipped" class="st5">
							<g id="XMLID_51_">
							</g>
							<defs>
								<filter id="Adobe_OpacityMaskFilter" filterUnits="userSpaceOnUse" x="66.2" y="-3.2" width="43.9" height="44">
									<feColorMatrix  type="matrix" values="1 0 0 0 0  0 1 0 0 0  0 0 1 0 0  0 0 0 1 0"/>
								</filter>
							</defs>
							<mask maskUnits="userSpaceOnUse" x="66.2" y="-3.2" width="43.9" height="44" id="mask-2_1_">
								<g class="st6">
									<ellipse id="path-1_1_" class="st0" cx="88.2" cy="18.8" rx="21.6" ry="21.6"/>
								</g>
							</mask>
							<ellipse id="XMLID_123_" sketch:type="MSShapeGroup" class="st7" cx="88.2" cy="18.8" rx="21" ry="21">
							</ellipse>
						</g>
						<g id="XMLID_122_-Clipped" class="st5">
							<g id="XMLID_1_">
							</g>
							<defs>
								<filter id="Adobe_OpacityMaskFilter_1_" filterUnits="userSpaceOnUse" x="72.5" y="3.2" width="31.3" height="31.4">
									<feColorMatrix  type="matrix" values="1 0 0 0 0  0 1 0 0 0  0 0 1 0 0  0 0 0 1 0"/>
								</filter>
							</defs>
							<mask maskUnits="userSpaceOnUse" x="72.5" y="3.2" width="31.3" height="31.4" id="mask-4_1_">
								<g class="st8">
									<ellipse id="path-3_1_" class="st0" cx="88.2" cy="18.8" rx="21.6" ry="21.6"/>
								</g>
							</mask>
							<ellipse id="XMLID_122_" sketch:type="MSShapeGroup" class="st9" cx="88.2" cy="18.8" rx="15.1" ry="15.2">
							</ellipse>
						</g>
						<g id="XMLID_121_-Clipped" class="st5">
							<g id="XMLID_2_">
							</g>
						</g>
						<g id="XMLID_120_-Clipped" class="st5">
							<g id="XMLID_3_">
							</g>
							<defs>
								<filter id="Adobe_OpacityMaskFilter_2_" filterUnits="userSpaceOnUse" x="78.1" y="8.8" width="10.7" height="10.8">
									<feColorMatrix  type="matrix" values="1 0 0 0 0  0 1 0 0 0  0 0 1 0 0  0 0 0 1 0"/>
								</filter>
							</defs>
							<mask maskUnits="userSpaceOnUse" x="78.1" y="8.8" width="10.7" height="10.8" id="mask-8_1_">
								<g class="st10">
									<ellipse id="path-7_1_" class="st0" cx="88.2" cy="18.8" rx="21.6" ry="21.6"/>
								</g>
							</mask>
							<path id="XMLID_120_" sketch:type="MSShapeGroup" class="st11" d="M88.2,18.8l-9.3-9.3"/>
						</g>
						<g id="XMLID_119_-Clipped" class="st5">
							<g id="XMLID_4_">
							</g>
							<defs>
								<filter id="Adobe_OpacityMaskFilter_3_" filterUnits="userSpaceOnUse" x="88.3" y="18.1" width="13.4" height="2">
									<feColorMatrix  type="matrix" values="1 0 0 0 0  0 1 0 0 0  0 0 1 0 0  0 0 0 1 0"/>
								</filter>
							</defs>
							<mask maskUnits="userSpaceOnUse" x="88.3" y="18.1" width="13.4" height="2" id="mask-10_1_">
								<g class="st12">
									<ellipse id="path-9_1_" class="st0" cx="88.2" cy="18.8" rx="21.6" ry="21.6"/>
								</g>
							</mask>
							<path id="XMLID_119_" sketch:type="MSShapeGroup" class="st13" d="M88.3,19.1h13.4"/>
						</g>
						<g id="XMLID_118_-Clipped" class="st5">
							<g id="XMLID_5_">
							</g>
							<defs>
								<filter id="Adobe_OpacityMaskFilter_4_" filterUnits="userSpaceOnUse" x="87.5" y="11.7" width="8.3" height="7.9">
									<feColorMatrix  type="matrix" values="1 0 0 0 0  0 1 0 0 0  0 0 1 0 0  0 0 0 1 0"/>
								</filter>
							</defs>
							<mask maskUnits="userSpaceOnUse" x="87.5" y="11.7" width="8.3" height="7.9" id="mask-12_1_">
								<g class="st14">
									<ellipse id="path-11_1_" class="st0" cx="88.2" cy="18.8" rx="21.6" ry="21.6"/>
								</g>
							</mask>
							<path id="XMLID_118_" sketch:type="MSShapeGroup" class="st15" d="M95.1,12.4l-7,6.4"/>
						</g>
						<g id="XMLID_117_-Clipped" class="st5">
							<g id="XMLID_6_">
							</g>
						</g>
						<g id="XMLID_116_-Clipped" class="st5">
							<g id="XMLID_7_">
							</g>
							<defs>
								<filter id="Adobe_OpacityMaskFilter_5_" filterUnits="userSpaceOnUse" x="85.4" y="16.1" width="5.5" height="5.5">
									<feColorMatrix  type="matrix" values="1 0 0 0 0  0 1 0 0 0  0 0 1 0 0  0 0 0 1 0"/>
								</filter>
							</defs>
							<mask maskUnits="userSpaceOnUse" x="85.4" y="16.1" width="5.5" height="5.5" id="mask-16_1_">
								<g class="st16">
									<ellipse id="path-15_1_" class="st0" cx="88.2" cy="18.8" rx="21.6" ry="21.6"/>
								</g>
							</mask>
							<ellipse id="XMLID_116_" sketch:type="MSShapeGroup" class="st17" cx="88.2" cy="18.8" rx="1.7" ry="1.8">
							</ellipse>
						</g>
						<g id="XMLID_741_-Clipped" class="st5">
							<g id="XMLID_8_">
							</g>
						</g>
						<g id="lignes_time_2_-Clipped" class="st5">
							<g id="XMLID_9_">
							</g>
							<defs>
								<filter id="Adobe_OpacityMaskFilter_6_" filterUnits="userSpaceOnUse" x="68.9" y="-0.4" width="38.5" height="38.5">
									<feColorMatrix  type="matrix" values="1 0 0 0 0  0 1 0 0 0  0 0 1 0 0  0 0 0 1 0"/>
								</filter>
							</defs>
							<mask maskUnits="userSpaceOnUse" x="68.9" y="-0.4" width="38.5" height="38.5" id="mask-20_1_">
								<g class="st18">
									<ellipse id="path-19_1_" class="st0" cx="88.2" cy="18.8" rx="21.6" ry="21.6"/>
								</g>
							</mask>
							<g id="lignes_time_2_" sketch:type="MSShapeGroup" class="st19">
								<g transform="translate(5.247312, 5.257143)">
									<path id="XMLID_111_" class="st20" d="M82.9-0.4v-5.3"/>
									<path id="XMLID_110_" class="st20" d="M81.2-3.2l-0.2-2.3"/>
									<path id="XMLID_109_" class="st20" d="M79.4-3l-0.5-2.3"/>
									<path id="XMLID_108_" class="st20" d="M77.7-2.5L77-4.7"/>
									<path id="XMLID_107_" class="st20" d="M76-1.9L75.1-4"/>
									<path id="XMLID_106_" class="st20" d="M74.5-1.1l-1.2-2"/>
									<path id="XMLID_105_" class="st20" d="M73-0.1L71.6-2"/>
									<path id="XMLID_104_" class="st20" d="M71.6,1l-1.5-1.7"/>
									<path id="XMLID_103_" class="st20" d="M70.4,2.3l-1.7-1.6"/>
									<path id="XMLID_102_" class="st20" d="M69.3,3.7l-1.9-1.4"/>
									<path id="XMLID_101_" class="st20" d="M68.3,5.1l-2-1.2"/>
									<path id="XMLID_100_" class="st20" d="M67.5,6.7l-2.2-0.9"/>
									<path id="XMLID_99_" class="st20" d="M66.9,8.3l-2.2-0.7"/>
									<path id="XMLID_98_" class="st20" d="M66.4,10.1l-2.3-0.5"/>
									<path id="XMLID_97_" class="st20" d="M66.1,11.8l-2.3-0.2"/>
									<path id="XMLID_96_" class="st20" d="M68.9,13.6h-5.2"/>
									<path id="XMLID_95_" class="st20" d="M66.1,15.3l-2.3,0.2"/>
									<path id="XMLID_94_" class="st20" d="M66.4,17.1l-2.3,0.5"/>
									<path id="XMLID_93_" class="st20" d="M66.9,18.8l-2.2,0.7"/>
									<path id="XMLID_92_" class="st20" d="M67.5,20.5l-2.2,0.9"/>
									<path id="XMLID_91_" class="st20" d="M68.3,22.1l-2,1.2"/>
									<path id="XMLID_90_" class="st20" d="M69.3,23.5l-1.9,1.4"/>
									<path id="XMLID_89_" class="st20" d="M70.4,24.9l-1.7,1.6"/>
									<path id="XMLID_88_" class="st20" d="M71.6,26.2l-1.5,1.7"/>
									<path id="XMLID_87_" class="st20" d="M73,27.3l-1.4,1.9"/>
									<path id="XMLID_86_" class="st20" d="M74.5,28.2l-1.2,2"/>
									<path id="XMLID_85_" class="st20" d="M76,29.1l-0.9,2.1"/>
									<path id="XMLID_84_" class="st20" d="M77.7,29.7L77,31.9"/>
									<path id="XMLID_83_" class="st20" d="M79.4,30.2l-0.5,2.3"/>
									<path id="XMLID_82_" class="st20" d="M81.2,30.4l-0.2,2.3"/>
									<path id="XMLID_81_" class="st20" d="M82.9,27.6v5.3"/>
									<path id="XMLID_80_" class="st20" d="M84.7,30.4l0.2,2.3"/>
									<path id="XMLID_79_" class="st20" d="M86.5,30.2l0.5,2.3"/>
									<path id="XMLID_78_" class="st20" d="M88.2,29.7l0.7,2.2"/>
									<path id="XMLID_77_" class="st20" d="M89.8,29.1l1,2.1"/>
									<path id="XMLID_76_" class="st20" d="M91.4,28.2l1.2,2"/>
									<path id="XMLID_75_" class="st20" d="M92.9,27.3l1.3,1.9"/>
									<path id="XMLID_74_" class="st20" d="M94.2,26.2l1.6,1.7"/>
									<path id="XMLID_73_" class="st20" d="M95.5,24.9l1.7,1.6"/>
									<path id="XMLID_72_" class="st20" d="M96.6,23.5l1.9,1.4"/>
									<path id="XMLID_71_" class="st20" d="M97.6,22.1l2,1.2"/>
									<path id="XMLID_70_" class="st20" d="M98.3,20.5l2.2,0.9"/>
									<path id="XMLID_69_" class="st20" d="M99,18.8l2.2,0.7"/>
									<path id="XMLID_68_" class="st20" d="M99.5,17.1l2.3,0.5"/>
									<path id="XMLID_67_" class="st20" d="M99.7,15.3l2.3,0.2"/>
									<path id="XMLID_66_" class="st20" d="M96.9,13.6h5.2"/>
									<path id="XMLID_65_" class="st20" d="M99.7,11.8l2.3-0.2"/>
									<path id="XMLID_64_" class="st20" d="M99.5,10.1l2.3-0.5"/>
									<path id="XMLID_63_" class="st20" d="M99,8.3l2.2-0.7"/>
									<path id="XMLID_62_" class="st20" d="M98.3,6.7l2.2-0.9"/>
									<path id="XMLID_61_" class="st20" d="M97.6,5.1l2-1.2"/>
									<path id="XMLID_60_" class="st20" d="M96.6,3.7l1.9-1.4"/>
									<path id="XMLID_59_" class="st20" d="M95.5,2.3l1.7-1.6"/>
									<path id="XMLID_58_" class="st20" d="M94.2,1l1.6-1.7"/>
									<path id="XMLID_57_" class="st20" d="M92.9-0.1L94.2-2"/>
									<path id="XMLID_56_" class="st20" d="M91.4-1.1l1.2-2"/>
									<path id="XMLID_55_" class="st20" d="M89.8-1.9l1-2.1"/>
									<path id="XMLID_54_" class="st20" d="M88.2-2.5l0.7-2.2"/>
									<path id="XMLID_53_" class="st20" d="M86.5-3l0.5-2.3"/>
									<path id="XMLID_52_" class="st20" d="M84.7-3.2l0.2-2.3"/>
								</g>
							</g>
						</g>
						<g id="light_1_-Clipped" transform="translate(1.000000, 0.000000)" class="st5">
							<g id="XMLID_10_">
							</g>
							<defs>
								<filter id="Adobe_OpacityMaskFilter_7_" filterUnits="userSpaceOnUse" x="-0.1" y="-32.8" width="106.5" height="101.6">
									<feColorMatrix  type="matrix" values="1 0 0 0 0  0 1 0 0 0  0 0 1 0 0  0 0 0 1 0"/>
								</filter>
							</defs>
							<mask maskUnits="userSpaceOnUse" x="-0.1" y="-32.8" width="106.5" height="101.6" id="mask-22_1_">
								<g class="st21">
									<ellipse id="path-21_1_" class="st0" cx="87.2" cy="18.8" rx="21.6" ry="21.6"/>
								</g>
							</mask>
							<path id="light_1_" sketch:type="MSShapeGroup" class="st22" d="M69.1,68.8H-0.1V-32.8h106.5L69.1,68.8z"/>
						</g>
					</g>
					<g id="XMLID_675_" transform="translate(73.602151, 36.171429)" sketch:type="MSShapeGroup" class="st4">
						<path id="XMLID_50_" class="st23" d="M60.8,18.9H50.6c-1.3,0-2.6,0.2-2.6,1.6V27h15.1v-6.5C63.1,19.1,62.2,18.9,60.8,18.9
							L60.8,18.9z"/>
						<path id="XMLID_49_" class="st24" d="M50.1,21.5h12.8"/>
						<path id="XMLID_48_" class="st24" d="M50.1,23.8h12.8"/>
					</g>
				</g>
			</g>
		</g>
	</g>
</g>
<path class="st25" d="M98.7,185.3h-4.5c-47.8,0-86.6-38.8-86.6-86.6v-4.5c0-47.8,38.8-86.6,86.6-86.6h4.5
	c47.8,0,86.6,38.8,86.6,86.6v4.5C185.3,146.6,146.6,185.3,98.7,185.3z"/>
<g>
	<path class="st26" d="M159.3,112.5c0-12,0-24,0-36.1c0-1.8-0.4-2.2-2.2-2.2c-7.1,0-14.2,0-21.4,0c-1.8,0-2.2,0.4-2.2,2.2
		c0,24,0,48.1,0,72.1c0,1.9,0.3,2.2,2.2,2.2c7.1,0,14.2,0,21.2,0c2,0,2.3-0.3,2.3-2.3C159.3,136.5,159.3,124.5,159.3,112.5z
		 M146.4,42.2c-7.7-0.1-13,4.8-13.4,12.4c-0.3,4.9,1.7,8.9,6,11.5c3,1.8,6.4,2.3,9.9,1.7c6-1,10.9-5.2,11.1-12.1
		C160.3,48,154.5,42.3,146.4,42.2z"/>
	<path class="st26" d="M29,148.7c1.2-2.8,1.9-5.7,2.8-8.6c9.4-30.7,18.8-61.4,28.1-92.1c0.4-1.2,1-1.7,2.2-1.7c9.6,0,19.3,0,28.9,0
		c1.3,0,1.9,0.7,2.2,1.8c5.4,17.4,10.8,34.7,16.1,52.1c4.9,15.9,9.9,31.8,14.8,47.7c0.7,2.2,0.3,2.8-2,2.8c-7.6,0-15.3,0-22.9,0
		c-1.4,0-2.1-0.5-2.4-1.8c-2.3-7.7-4.6-15.3-6.9-23c-0.3-1-0.7-1.3-1.8-1.3c-8.1,0.1-16.2,0-24.3,0c-1,0-1.4,0.2-1.6,1.2
		c-2.1,7.6-4.2,15.3-6.3,22.9c-0.5,1.8-0.7,2-2.6,2c-7.3,0-14.7,0-22,0c-0.9,0-1.7-0.1-2.3-0.8C29,149.5,29,149.1,29,148.7z
		 M75.6,70.8c-2.5,11.4-5.9,22.5-9,33.8c6.2,0,12.4,0,18.6,0C82,93.3,78.5,82.2,75.6,70.8z"/>
	<path class="st26" d="M159.3,112.5c0,12,0,24,0,35.9c0,2-0.3,2.3-2.3,2.3c-7.1,0-14.2,0-21.2,0c-1.8,0-2.2-0.3-2.2-2.2
		c0-24,0-48.1,0-72.1c0-1.8,0.4-2.2,2.2-2.2c7.1,0,14.2,0,21.4,0c1.7,0,2.2,0.4,2.2,2.2C159.3,88.5,159.3,100.5,159.3,112.5z"/>
	<path class="st26" d="M146.4,42.2c8.1,0.1,13.9,5.8,13.6,13.5c-0.2,6.8-5.1,11.1-11.1,12.1c-3.5,0.6-6.8,0.2-9.9-1.7
		c-4.3-2.6-6.3-6.6-6-11.5C133.4,47,138.7,42.1,146.4,42.2z"/>
	<path class="st27" d="M75.6,70.8c2.9,11.3,6.4,22.4,9.6,33.8c-6.2,0-12.4,0-18.6,0C69.7,93.4,73.2,82.2,75.6,70.8z"/>
</g>
</svg>
